<svg data-name="Layer 1" xmlns="http://www.w3.org/2000/svg" viewBox="0 0 300 300"><g transform="matrix(0.8108108108108109,0,0,0.8108108108108109,0,0)"><path d="M211.51 275.07s19.38 29 46.54 22.23 1.05-29.26-1.69-19.37 8.42 10.32 6.95 5.69" stroke-linecap="round" stroke-linejoin="round" stroke="#404041" stroke-width="4" fill="none"></path><ellipse cx="196.78" cy="323.21" rx="88.08" ry="10.39" fill="#45413c" fill-opacity=".2"></ellipse><path d="M138.7 320.91s8.87-27.18 33.16-27.18 30.92 26.25 30.59 26.91c-3.08 6.25-66.1 6.68-63.75.27z" fill="#929497" stroke-linecap="round" stroke-linejoin="round" stroke="#404041" stroke-width="4"></path><path d="M222.15 229.6v.07c-2.57-5.17-7-8.67-14.4-8.9-1.05 0-15.38-2.06-21.8 26.65-1.49 6.68-2.57 11.52-3.36 15 0 0-18-8.59-20.07 4.58-1.5 9.36-.87 20.4-.37 26a4 4 0 0 0 4 3.63H175a4 4 0 0 0 4-4.43l-1.15-10.29s26.33 2.73 33.15 14.72c5.19 9.13 10.38 19.75 12.56 24.31a4 4 0 0 0 3.6 2.26h8A4 4 0 0 0 239 318c-2.27-7.15-7.81-21-20.23-37.31 0 0 5.36-15.71 6.28-31l5.31 4.6-1.36 9.35a7 7 0 0 0-4.28 5.76c-.33 4.28 1 5.43 1 5.43s-1.65 8.22 6.41 7.57a5.56 5.56 0 0 0 5.1 1.31s3.46 1.92 5.43.14 6.75-5.75 7.08-17.84-2.52-27.34-27.59-36.41z" fill="#ffffff" stroke-linecap="round" stroke-linejoin="round" stroke="#404041" stroke-width="4"></path><circle cx="194.13" cy="64.07" r="26.18" fill="#e6e7e8" stroke-linecap="round" stroke-linejoin="round" stroke="#404041" stroke-width="4"></circle><path d="M331.06 74.5a30 30 0 0 0-33.82 8.36 87.67 87.67 0 1 0 22.11 49.59 30 30 0 0 0 11.71-57.95z" fill="#ffffff" stroke-linecap="round" stroke-linejoin="round" stroke="#404041" stroke-width="4"></path><path d="M331.06 74.5a30 30 0 0 0-33.82 8.36 87.67 87.67 0 1 0 22.11 49.59 30 30 0 0 0 11.71-57.95z" fill="#ffffff"></path><path d="M319.35 110.37a87.65 87.65 0 0 1-174.14 20.1 87.67 87.67 0 1 0 174.14 2 30 30 0 0 0 28.58-41 30 30 0 0 1-28.58 18.9z" fill="#e6e7e8"></path><path d="M331.06 74.5a30 30 0 0 0-33.82 8.36 87.67 87.67 0 1 0 22.11 49.59 30 30 0 0 0 11.71-57.95z" stroke-linecap="round" stroke-linejoin="round" stroke="#404041" stroke-width="4" fill="none"></path><ellipse cx="272.78" cy="145.66" rx="6.12" ry="15.71" transform="rotate(-81.66 272.773 145.659)" fill="#f9c1b6"></ellipse><ellipse cx="167.43" cy="128.25" rx="6.12" ry="15.71" transform="rotate(-81.66 167.42 128.253)" fill="#f9c1b6"></ellipse><path d="M213.79 108.5a2.18 2.18 0 0 0-2.28.75 2.21 2.21 0 0 0-.22 2.4l1.43 2.68 3.06-1.21a2.18 2.18 0 0 0-.24-4.15z" stroke-miterlimit="10" fill="#404041" stroke="#404041" stroke-width="4"></path><path stroke-miterlimit="10" fill="#ffffff" stroke="#404041" stroke-width="4" d="m212.72 114.33-2.43 13.84"></path><path fill="#f05336" stroke-linecap="round" stroke-linejoin="round" stroke="#404041" stroke-width="4" d="m179.35 198.79 38.22 63.16-72.85-11.91 34.63-51.25z"></path><ellipse cx="162.03" cy="224.42" rx="30.93" ry="16.81" transform="rotate(-55.95 162.02 224.407)" fill="#8090a4" stroke-linecap="round" stroke-linejoin="round" stroke="#404041" stroke-width="4"></ellipse><path stroke-linecap="round" stroke-linejoin="round" stroke="#404041" stroke-width="4" fill="none" d="m217.57 261.95 12.04 10.02"></path><path d="M165.73 253.48c4.59 25.13 44.34 16.24 40.28 4.43 0 0-1.71-3.41-4.58-.81 0 0 1.44-3.59-.9-4.48s-5.83 1.79-6.1 2 2-2.78-.81-4.93-14.21 6.05-14.21 6.05z" fill="#ffffff" stroke-linecap="round" stroke-linejoin="round" stroke="#404041" stroke-width="4"></path><path stroke-linecap="round" stroke-linejoin="round" stroke="#404041" stroke-width="4" fill="none" d="m195.15 79.45 5.62 13.91m50.91 8.18 19.31-5.05"></path><path d="m50.78 215.55 14.85-11.34L99.84 217s-10 6-10.28 5.67-38.78-7.12-38.78-7.12z" fill="#f6921e" stroke-linecap="round" stroke-linejoin="round" stroke="#404041" stroke-width="4"></path><path d="m103 187 5.67-10.56 40.08 40.28s-4 5-4.56 4.16S103 187 103 187z" fill="#ffdd15" stroke-linecap="round" stroke-linejoin="round" stroke="#404041" stroke-width="4"></path><circle cx="80.48" cy="186.27" r="7.28" fill="#f1f1f2" stroke-linecap="round" stroke-linejoin="round" stroke="#404041" stroke-width="4"></circle><circle cx="37.38" cy="238.23" r="7.28" fill="#f1f1f2" stroke-linecap="round" stroke-linejoin="round" stroke="#404041" stroke-width="4"></circle><path fill="#ffdd15" stroke-linecap="round" stroke-linejoin="round" stroke="#404041" stroke-width="4" d="m106.17 81.09 10.85 10.57 7.14-5.25-8.99-13.31-9 7.99z"></path><path fill="#f076ac" stroke-linecap="round" stroke-linejoin="round" stroke="#404041" stroke-width="4" d="M116.45 254.13v10.27l15.42 5.2 1.57-8.91-16.99-6.56z"></path><path d="m135.36 134.67 4.82 15.49s10.15 1.77 10.15 0-2.28-18-2.28-18z" fill="#f05336" stroke-linecap="round" stroke-linejoin="round" stroke="#404041" stroke-width="4"></path><path d="m143.76 191.18 5.33-12.18 22.34 33.76s-3.56 6.6-3.56 6.09-24.11-27.67-24.11-27.67z" fill="#ffffff" stroke-linecap="round" stroke-linejoin="round" stroke="#404041" stroke-width="4"></path><path d="M141.18 236.71c.72.73 8.61 1.12 10 1.49s5.75-2.85 5.22-3.39-7.52-4.34-8.87-4.44-6.35 6.34-6.35 6.34z" fill="#f05336" stroke-linecap="round" stroke-linejoin="round" stroke="#404041" stroke-width="4"></path><path fill="#f076ac" stroke-linecap="round" stroke-linejoin="round" stroke="#404041" stroke-width="4" d="m187.42 176.71 8.37 17.77 6.1-2.04-7.24-20.3-7.23 4.57zm-150.04-55.7 20.61 19.2 7.03-5.95-20.45-23.18-7.19 9.93z"></path><path d="M75.31 251.23s10.23.93 4.85 10.44-15.4.64-15.4.64-8.5-9.66 2.86-18.05 79.22 1.8 79.22 1.8z" fill="#ffdd15" stroke-linecap="round" stroke-linejoin="round" stroke="#404041" stroke-width="4"></path><path d="M99.64 128.94c1 .13 2.2.28 3.54.43 22.08 2.34-10.74-48.53-15.26-9.07-2.69 23.43 51.61 69.57 53.26 71-19.02-19.89-41.54-62.36-41.54-62.36z" fill="#8bc53f" stroke-linecap="round" stroke-linejoin="round" stroke="#404041" stroke-width="4"></path><path d="M181.14 100s8.41 11.92 7.67 11.41-12.13-2.79-12.13-2.79m92.12 6.36-19.01 5.92 17.37 4.71" stroke-linecap="round" stroke-linejoin="round" stroke="#404041" stroke-width="4" fill="none"></path><path fill="#e15f5f" stroke-linecap="round" stroke-linejoin="round" stroke="#404041" stroke-width="4" d="m192.44 121.76 8.7 35.56 34.62-27.83-43.32-7.73z"></path><path d="m227.49 136.15-26.35 21.18-3.21-13.16-1.38-5.64c8.56-4.81 20.22-6.72 30.94-2.38z" fill="#ef8e8e"></path><path stroke-linecap="round" stroke-linejoin="round" stroke="#404041" stroke-width="4" fill="none" d="m192.44 121.76 8.7 35.56 34.62-27.83-43.32-7.73z"></path><path d="M99.64 128.94s-4.06-14 2.21-11" fill="#8bc53f" stroke-linecap="round" stroke-linejoin="round" stroke="#404041" stroke-width="4"></path><path d="M75.31 251.23s-6.35 1.9-3.47 5" fill="#ffdd15" stroke-linecap="round" stroke-linejoin="round" stroke="#404041" stroke-width="4"></path><path fill="#8bc53f" stroke-linecap="round" stroke-linejoin="round" stroke="#404041" stroke-width="4" d="m26.67 183.86 10.85 10.56 7.14-5.25-8.99-13.3-9 7.99z"></path></g></svg>